<svg width="16" height="16" viewBox="0 0 16 16" fill="none" xmlns="http://www.w3.org/2000/svg">
<g id="uil:user">
<path id="Vector" d="M10.4378 8.47075C11.0914 7.95653 11.5685 7.25135 11.8027 6.45337C12.0368 5.6554 12.0164 4.80424 11.7443 4.01839C11.4723 3.23254 10.962 2.551 10.2845 2.06865C9.60708 1.5863 8.79613 1.32708 7.96449 1.32708C7.13286 1.32708 6.3219 1.5863 5.64444 2.06865C4.96699 2.551 4.45672 3.23254 4.18463 4.01839C3.91254 4.80424 3.89217 5.6554 4.12633 6.45337C4.3605 7.25135 4.83756 7.95653 5.49116 8.47075C4.37121 8.91943 3.39402 9.66366 2.66375 10.624C1.93349 11.5844 1.47753 12.725 1.34449 13.9241C1.33486 14.0116 1.34257 14.1002 1.36717 14.1848C1.39178 14.2694 1.4328 14.3482 1.4879 14.417C1.59917 14.5557 1.76101 14.6446 1.93782 14.6641C2.11464 14.6835 2.29193 14.6319 2.43071 14.5207C2.56948 14.4094 2.65837 14.2476 2.67782 14.0707C2.82421 12.7676 3.44562 11.5639 4.4233 10.6899C5.40099 9.81594 6.66642 9.33276 7.97782 9.33276C9.28923 9.33276 10.5547 9.81594 11.5323 10.6899C12.51 11.5639 13.1314 12.7676 13.2778 14.0707C13.2959 14.2346 13.3741 14.3859 13.4972 14.4954C13.6203 14.605 13.7797 14.6651 13.9445 14.6641H14.0178C14.1926 14.644 14.3523 14.5556 14.4622 14.4182C14.5721 14.2809 14.6232 14.1057 14.6045 13.9307C14.4708 12.7282 14.0124 11.5847 13.2784 10.6229C12.5444 9.66104 11.5624 8.91706 10.4378 8.47075ZM7.96449 7.99741C7.43707 7.99741 6.9215 7.84101 6.48297 7.548C6.04444 7.25498 5.70265 6.8385 5.50081 6.35123C5.29898 5.86397 5.24617 5.32778 5.34906 4.8105C5.45196 4.29323 5.70593 3.81806 6.07887 3.44513C6.45181 3.07219 6.92697 2.81821 7.44425 2.71532C7.96153 2.61242 8.49771 2.66523 8.98498 2.86707C9.47225 3.0689 9.88873 3.4107 10.1817 3.84922C10.4748 4.28775 10.6312 4.80334 10.6312 5.33074C10.6312 6.03798 10.3502 6.71628 9.85011 7.21636C9.35001 7.71645 8.67173 7.99741 7.96449 7.99741Z" fill="current"/>
</g>
</svg>
